<svg xmlns="http://www.w3.org/2000/svg" width="12.25" height="14" viewBox="0 0 12.25 14">
  <path id="Icon_awesome-address-book" data-name="Icon awesome-address-book" d="M11.922,4.375a.329.329,0,0,0,.328-.328V2.953a.329.329,0,0,0-.328-.328h-.547V1.313A1.313,1.313,0,0,0,10.063,0H1.313A1.313,1.313,0,0,0,0,1.313V12.688A1.313,1.313,0,0,0,1.313,14h8.75a1.313,1.313,0,0,0,1.313-1.312V11.375h.547a.329.329,0,0,0,.328-.328V9.953a.329.329,0,0,0-.328-.328h-.547V7.875h.547a.329.329,0,0,0,.328-.328V6.453a.329.329,0,0,0-.328-.328h-.547V4.375ZM5.688,3.5a1.75,1.75,0,1,1-1.75,1.75A1.752,1.752,0,0,1,5.688,3.5ZM8.75,9.975a.573.573,0,0,1-.613.525h-4.9a.573.573,0,0,1-.612-.525V9.45A1.722,1.722,0,0,1,4.463,7.875H4.6a2.816,2.816,0,0,0,2.177,0h.137A1.722,1.722,0,0,1,8.75,9.45Z" />
</svg>
