<svg xmlns="http://www.w3.org/2000/svg" width="12.25" height="14" viewBox="0 0 12.25 14">
  <path id="Icon_awesome-calendar" data-name="Icon awesome-calendar" d="M.328,5.25H11.922a.329.329,0,0,1,.328.328v7.109A1.313,1.313,0,0,1,10.938,14H1.313A1.313,1.313,0,0,1,0,12.688V5.578A.329.329,0,0,1,.328,5.25Zm11.922-1.2V3.063A1.313,1.313,0,0,0,10.938,1.75H9.625V.328A.329.329,0,0,0,9.3,0H8.2a.329.329,0,0,0-.328.328V1.75h-3.5V.328A.329.329,0,0,0,4.047,0H2.953a.329.329,0,0,0-.328.328V1.75H1.313A1.313,1.313,0,0,0,0,3.063v.984a.329.329,0,0,0,.328.328H11.922A.329.329,0,0,0,12.25,4.047Z" />
</svg>
