<svg xmlns="http://www.w3.org/2000/svg" width="38" height="38" viewBox="0 0 38 38">
  <path d="M3,4A1,1,0,0,1,4,3H6V1H4A3,3,0,0,0,1,4V6H3Z" transform="translate(-1 -1)" />
  <path d="M3,20V18H1v2a3,3,0,0,0,3,3H6V21H4A1,1,0,0,1,3,20Z" transform="translate(-1 15)" />
  <path d="M20,1H18V3h2a1,1,0,0,1,1,1V6h2V4A3,3,0,0,0,20,1Z" transform="translate(15 -1)" />
  <path d="M21,20a1,1,0,0,1-1,1H18v2h2a3,3,0,0,0,3-3V18H21Z" transform="translate(15 15)" />
  <path d="M35,25.833V14.167a3.989,3.989,0,0,0-2.143-3.516L22.143,4.8a4.459,4.459,0,0,0-4.286,0L7.143,10.631A4.044,4.044,0,0,0,5,14.167V25.833a3.989,3.989,0,0,0,2.143,3.516L17.857,35.2a4.459,4.459,0,0,0,4.286,0l10.714-5.853A3.989,3.989,0,0,0,35,25.833ZM17.857,30.507,9.286,25.833V16.423l8.571,4.735ZM20,17.643l-8.486-4.695L20,8.315l8.486,4.634Zm10.714,8.19-8.571,4.674V21.158l8.571-4.735Z" transform="translate(-1 -1)" />
</svg>