<svg xmlns="http://www.w3.org/2000/svg" width="40" height="38.642" viewBox="0 0 40 38.642">
  <g transform="translate(0 -0.435)">
    <path d="M20,.435C8.954.435,0,8.34,0,18.093A16.666,16.666,0,0,0,6.018,30.709c-.813,4.7-6.061,6.6-5.7,7.9C4.75,40.44,13.63,36.4,15.8,35.354a22.627,22.627,0,0,0,4.2.4c11.045,0,20-7.9,20-17.659S31.045.435,20,.435ZM18.582,18.828c0,4.8-2.124,7.5-6.311,8.006l-.025,0a.192.192,0,0,1-.128-.048.194.194,0,0,1-.067-.147V24.2a.193.193,0,0,1,.1-.17,5.379,5.379,0,0,0,2.911-5.006H12.246a.2.2,0,0,1-.2-.2V12.69a.2.2,0,0,1,.2-.2h6.141a.2.2,0,0,1,.2.2v6.138Zm10.872,0c0,4.728-1.881,7.123-6.3,8a.3.3,0,0,1-.037,0A.2.2,0,0,1,23,26.792a.194.194,0,0,1-.07-.151V24.2a.193.193,0,0,1,.1-.17,5.379,5.379,0,0,0,2.911-5.006H23.121a.2.2,0,0,1-.2-.2V12.69a.2.2,0,0,1,.2-.2h6.138a.194.194,0,0,1,.2.2Z"/>
  </g>
</svg>