<svg xmlns="http://www.w3.org/2000/svg" width="53.1" height="53.1" viewBox="0 0 53.1 53.1">
  <path d="M0,0H53.1V53.1H0Z" fill="none"/>
  <circle cx="5.5" cy="5.5" r="5.5" transform="translate(4.55 15.55)" />
  <circle cx="5.531" cy="5.531" r="5.531" transform="translate(14.381 6.637)" />
  <circle cx="5.531" cy="5.531" r="5.531" transform="translate(27.656 6.637)" />
  <circle cx="5.5" cy="5.5" r="5.5" transform="translate(37.55 15.55)" />
  <path d="M33.523,20.146c-1.925-2.257-3.54-4.182-5.487-6.438a9.387,9.387,0,0,0-3.872-2.92,4.48,4.48,0,0,0-.73-.2,11.135,11.135,0,0,0-1.726-.088,9.281,9.281,0,0,0-1.748.111,4.48,4.48,0,0,0-.73.2,9.531,9.531,0,0,0-3.872,2.92c-1.925,2.257-3.54,4.182-5.487,6.438-2.9,2.9-6.46,6.106-5.8,10.6A6.947,6.947,0,0,0,9.229,35.9c1.615.332,6.77-.973,12.257-.973h.4c5.487,0,10.642,1.283,12.257.973A6.98,6.98,0,0,0,39.3,30.766c.686-4.513-2.876-7.722-5.775-10.62Z" transform="translate(4.842 12.731)" />
</svg>
