<svg xmlns="http://www.w3.org/2000/svg" width="45.1" height="37.583" viewBox="0 0 45.1 37.583">
  <path d="M43.221,18.931l-9.4-.019a1.885,1.885,0,0,0-1.879,1.879V37.7a1.885,1.885,0,0,0,1.879,1.879h9.4A1.885,1.885,0,0,0,45.1,37.7V20.792A1.869,1.869,0,0,0,43.221,18.931Zm0,16.894h-9.4V22.671h9.4ZM37.583,2H3.758A3.745,3.745,0,0,0,0,5.758v22.55a3.757,3.757,0,0,0,3.758,3.758H16.913v3.758H13.154v3.758H28.188V35.825H24.429V32.067h3.758V28.308H3.758V5.758H37.583v9.4h3.758v-9.4A3.757,3.757,0,0,0,37.583,2ZM22.494,15.154,20.671,9.517l-1.823,5.638H13.154L17.8,18.462,16.029,23.93l4.642-3.383,4.642,3.383-1.766-5.468,4.642-3.307Z" transform="translate(0 -2)" />
</svg>
