<svg xmlns="http://www.w3.org/2000/svg" width="56" height="56" viewBox="0 0 56 56">
  <path d="M0,0H56V56H0Z" fill="none"/>
  <circle cx="5" cy="5" r="5" transform="translate(42 23)" />
  <circle cx="5" cy="5" r="5" transform="translate(4 23)" />
  <circle cx="5" cy="5" r="5" transform="translate(23 42)" />
  <path d="M17.8,14.41,8.417,4.983H8.393L7.67,4.237,4.357,7.527l9.38,9.45.023-.023.723.747Zm9.084.063L37.159,4.225l3.295,3.3L30.175,17.777ZM17.7,30.207l-3.313-3.29-9.4,9.357-.747.77,3.29,3.29,9.4-9.38Zm22.75,6.86-9.31-9.357-.84-.817-3.29,3.29,9.31,9.357.817.817Z" transform="translate(5.653 5.633)" />
  <circle cx="5" cy="5" r="5" transform="translate(23 4)" />
</svg>
