<svg xmlns="http://www.w3.org/2000/svg" width="40" height="40" viewBox="0 0 40 40">
  <path d="M0,0H40V40H0Z" fill="none"/>
  <circle cx="1.5" cy="1.5" r="1.5" transform="translate(24.667 14.095)" />
  <circle cx="1.5" cy="1.5" r="1.5" transform="translate(12.333 14.095)" />
  <path d="M20,27.2a7.194,7.194,0,0,1-6.21-3.6H10.784a9.891,9.891,0,0,0,18.432,0H26.21A7.194,7.194,0,0,1,20,27.2ZM19.982,2A18,18,0,1,0,38,20,17.991,17.991,0,0,0,19.982,2ZM20,34.4A14.4,14.4,0,1,1,34.4,20,14.4,14.4,0,0,1,20,34.4Z" transform="translate(0 0)" />
</svg>
