<svg xmlns="http://www.w3.org/2000/svg" width="19.5" height="21" viewBox="0 0 19.5 21">
  <path d="M21.258,9.834c-.187-.187-7.42-7.566-7.42-7.566a2.575,2.575,0,0,0-3.675,0s-7.2,7.336-7.42,7.566a1.883,1.883,0,0,0-.492,1.223V21a1.5,1.5,0,0,0,1.5,1.5h16.5a1.5,1.5,0,0,0,1.5-1.5V11.016A1.8,1.8,0,0,0,21.258,9.834Zm-.909,1.983-3.8,3.975a.091.091,0,0,0,0,.131l3.53,3.759a.608.608,0,0,1,0,.862.611.611,0,0,1-.862,0l-7.078-7.556a.184.184,0,0,0-.272,0L4.791,20.541a.611.611,0,0,1-.863,0,.608.608,0,0,1,0-.862l3.53-3.759a.1.1,0,0,0,0-.131L3.642,11.813A1.069,1.069,0,0,1,4.4,10.134H19.6A1.107,1.107,0,0,1,20.348,11.817Z" transform="translate(-2.25 -1.5)" />
</svg>
