<svg xmlns="http://www.w3.org/2000/svg" width="21" height="24" viewBox="0 0 21 24">
  <path d="M20.438,7.5A.564.564,0,0,0,21,6.938V5.063a.564.564,0,0,0-.562-.562H19.5V2.25A2.251,2.251,0,0,0,17.25,0h-15A2.251,2.251,0,0,0,0,2.25v19.5A2.251,2.251,0,0,0,2.25,24h15a2.251,2.251,0,0,0,2.25-2.25V19.5h.938A.564.564,0,0,0,21,18.938V17.063a.564.564,0,0,0-.562-.562H19.5v-3h.938A.564.564,0,0,0,21,12.938V11.063a.564.564,0,0,0-.562-.562H19.5v-3ZM9.75,6a3,3,0,1,1-3,3A3,3,0,0,1,9.75,6ZM15,17.1a.983.983,0,0,1-1.05.9H5.55a.983.983,0,0,1-1.05-.9v-.9a2.952,2.952,0,0,1,3.15-2.7h.234a4.828,4.828,0,0,0,3.731,0h.234A2.952,2.952,0,0,1,15,16.2Z" />
</svg>
