<svg xmlns="http://www.w3.org/2000/svg" width="15.507" height="15.507" viewBox="0 0 15.507 15.507">
  <path id="Icon_awesome-facebook-square" data-name="Icon awesome-facebook-square" d="M13.845,1.25H1.661A1.661,1.661,0,0,0,0,2.911V15.1a1.661,1.661,0,0,0,1.661,1.661H6.412V11.485H4.232V9H6.412V7.112a3.029,3.029,0,0,1,3.242-3.34,13.211,13.211,0,0,1,1.922.168V6.052H10.494a1.241,1.241,0,0,0-1.4,1.341V9h2.381l-.381,2.481h-2v5.272h4.751A1.661,1.661,0,0,0,15.507,15.1V2.911A1.661,1.661,0,0,0,13.845,1.25Z" transform="translate(0 -1.25)" />
</svg>