<svg xmlns="http://www.w3.org/2000/svg" width="17.168" height="16.739" viewBox="0 0 17.168 16.739">
  <path id="Icon_awesome-github" data-name="Icon awesome-github" d="M5.742,13.791c0,.069-.08.125-.18.125s-.194-.045-.194-.125.08-.125.18-.125S5.742,13.711,5.742,13.791Zm-1.076-.156c-.024.069.045.149.149.17a.162.162,0,0,0,.215-.069c.021-.069-.045-.149-.149-.18A.178.178,0,0,0,4.666,13.635Zm1.53-.059c-.1.024-.17.09-.159.17s.1.114.2.09.17-.09.159-.159S6.3,13.566,6.2,13.576ZM8.473.313A8.3,8.3,0,0,0,0,8.758a8.678,8.678,0,0,0,5.867,8.28c.443.08.6-.194.6-.419s-.01-1.4-.01-2.125c0,0-2.423.519-2.932-1.031,0,0-.395-1.007-.962-1.267,0,0-.793-.543.055-.533a1.827,1.827,0,0,1,1.336.893,1.83,1.83,0,0,0,2.523.723,1.924,1.924,0,0,1,.554-1.166C5.1,11.9,3.143,11.617,3.143,8.287A2.623,2.623,0,0,1,3.96,6.249,3.27,3.27,0,0,1,4.05,3.9c.723-.225,2.388.935,2.388.935a8.177,8.177,0,0,1,4.347,0S12.451,3.67,13.174,3.9a3.269,3.269,0,0,1,.09,2.35,2.691,2.691,0,0,1,.893,2.039c0,3.34-2.039,3.607-3.974,3.825a2.047,2.047,0,0,1,.588,1.606c0,1.166-.01,2.61-.01,2.894,0,.225.159.5.6.419a8.6,8.6,0,0,0,5.808-8.273A8.487,8.487,0,0,0,8.473.313ZM3.364,12.251c-.045.035-.035.114.024.18s.135.08.18.035.035-.114-.024-.18S3.409,12.206,3.364,12.251Zm-.374-.28c-.024.045.01.1.08.135a.1.1,0,0,0,.149-.024c.024-.045-.01-.1-.08-.135S3.015,11.936,2.991,11.97ZM4.112,13.2c-.055.045-.035.149.045.215s.18.09.225.035.024-.149-.045-.215S4.157,13.147,4.112,13.2Zm-.395-.509c-.055.035-.055.125,0,.2s.149.114.194.08a.158.158,0,0,0,0-.215C3.863,12.683,3.773,12.649,3.718,12.694Z" transform="translate(0 -0.313)"/>
</svg>