<svg xmlns="http://www.w3.org/2000/svg" width="15.507" height="15.507" viewBox="0 0 15.507 15.507">
  <path id="Icon_awesome-linkedin" data-name="Icon awesome-linkedin" d="M14.4,1.25H1.1A1.112,1.112,0,0,0,0,2.368V15.639a1.112,1.112,0,0,0,1.1,1.118H14.4a1.115,1.115,0,0,0,1.108-1.118V2.368A1.115,1.115,0,0,0,14.4,1.25ZM4.687,14.542h-2.3v-7.4h2.3v7.4ZM3.538,6.131A1.333,1.333,0,1,1,4.87,4.8,1.333,1.333,0,0,1,3.538,6.131ZM13.3,14.542H11v-3.6c0-.858-.017-1.963-1.194-1.963-1.2,0-1.381.935-1.381,1.9v3.662H6.13v-7.4h2.2V8.152h.031a2.421,2.421,0,0,1,2.177-1.194c2.326,0,2.759,1.533,2.759,3.527Z" transform="translate(0 -1.25)" />
</svg>