<svg xmlns="http://www.w3.org/2000/svg" width="17.722" height="14.394" viewBox="0 0 17.722 14.394">
  <path id="Icon_awesome-twitter" data-name="Icon awesome-twitter" d="M15.9,5.465c.011.157.011.315.011.472A10.263,10.263,0,0,1,5.578,16.272,10.264,10.264,0,0,1,0,14.641a7.514,7.514,0,0,0,.877.045,7.274,7.274,0,0,0,4.509-1.552,3.639,3.639,0,0,1-3.4-2.519,4.581,4.581,0,0,0,.686.056,3.842,3.842,0,0,0,.956-.124A3.633,3.633,0,0,1,.72,6.983V6.938A3.658,3.658,0,0,0,2.361,7.4,3.638,3.638,0,0,1,1.237,2.542a10.324,10.324,0,0,0,7.489,3.8,4.1,4.1,0,0,1-.09-.832,3.636,3.636,0,0,1,6.286-2.485,7.151,7.151,0,0,0,2.305-.877,3.622,3.622,0,0,1-1.6,2,7.281,7.281,0,0,0,2.092-.562A7.808,7.808,0,0,1,15.9,5.465Z" transform="translate(0 -1.878)" />
</svg>
